# xmcd
# Track frame offsets:
# 150
# 11506
# 25078
# 38705
# 48529
# 63355
# 77442
# 89327
# 101422
# 114672
# 125679
# 136533
#
# Disc length: 1951 seconds
# Revision: 0
# Processed by: cddbd v1.5.2PL0 Copyright (c) Steve Scherf et al.
# Submitted via: VisiTrax 2.10.3.257 - For more info visit www.synapsa.com
#
DISCID=8d079d0c
DTITLE=Country Express - Choice Cuts
DYEAR=2007
DGENRE=Bluegrass
TTITLE0=Other Side Of Life
TTITLE1=Flinthill Special
TTITLE2=All The Way To Texas
TTITLE3=Hallelujah I'm Ready To Go
TTITLE4=House Of Gold
TTITLE5=Misty
TTITLE6=Hot Corn Cold Corn
TTITLE7=Aunt Dinah's Quilting Party
TTITLE8=Another Lonesome Morning
TTITLE9=Dallas Rag
TTITLE10=Heavenward Bound
TTITLE11=Like A Fox On The Run
EXTD=
EXTT0=
EXTT1=
EXTT2=
EXTT3=
EXTT4=
EXTT5=
EXTT6=
EXTT7=
EXTT8=
EXTT9=
EXTT10=
EXTT11=
PLAYORDER=
